<svg width="407" height="63" viewBox="0 0 407 63" fill="none" xmlns="http://www.w3.org/2000/svg">
<path d="M52.7 63L54.6 33.7L35.7 63H0L4.1 0H38.1L31.5 39.2L52.9 0H80.3L73.6 39.2L95.1 0H129.1L88.4 63H52.7ZM143.669 63H122.669C104.269 63 101.469 58 108.669 38C115.569 18 121.969 13 140.469 13H161.469C179.869 12.9 182.669 17.9 175.669 38L174.069 42H135.569C132.069 52.4 132.269 55 136.169 55C140.169 55 141.769 52.8 144.969 44H173.469C168.069 59.2 162.069 63 143.669 63ZM138.569 34H148.569C152.169 23.6 152.169 21 148.169 21C144.169 21 142.169 23.6 138.569 34ZM229.512 10L210.712 63H180.712L199.512 10H187.512L191.112 0H245.112L241.512 10H229.512ZM253.457 13H274.457C292.857 13 295.657 18 288.657 38C281.457 58 275.057 63 256.657 63H235.657C217.257 63 214.457 58 221.657 38C228.657 18 235.057 13 253.457 13ZM260.157 38C264.957 24.4 265.157 21 261.157 21C257.157 21 254.957 24.4 250.157 38C245.357 51.6 245.157 55 249.157 55C253.157 55 255.357 51.6 260.157 38ZM324.723 63L320.323 59L318.723 63H296.623C283.923 63 281.923 59.8 286.523 47L298.523 13H326.523L314.523 47C312.123 53.4 313.423 55 320.123 55H321.723L336.523 13H364.523L346.723 63H324.723ZM388.692 29L376.692 63H348.692L360.692 29C365.292 16.2 369.692 13 382.492 13H406.492L403.692 21H399.692C393.292 21 391.092 22.6 388.692 29Z" fill="white"/>
</svg>
